{"title":"Boogiepop Phantom (Complete Ep 1-12) 480p [Cursator]","uid":7996426,"size":494830845,"categoryP":"video","categoryS":"tv_shows","magnet":"?xt=urn:btih:9c979f849d60d4b92bb2927dc405779f62f43b95&amp;dn=Boogiepop+Phantom+%28Complete+Ep+1-12%29+480p+%5BCursator%5D&amp;tr=udp%3A%2F%2Ftracker.openbittorrent.com%3A80&amp;tr=udp%3A%2F%2Fopen.demonii.com%3A1337&amp;tr=udp%3A%2F%2Ftracker.coppersurfer.tk%3A6969&amp;tr=udp%3A%2F%2Fexodus.desync.com%3A6969","seeders":1,"leechers":0,"uploader":"Cursator","files":-1,"time":1357631880,"description":"All The Episodes of Boogiepop Phantom (Ep 1-12) at 480p Video Quality :)\n\nPlease seed after you download.\n\n--------------------------------------------------------------------------------\n\nCover\n------\n      &lt;a href=&quot;\nhttp://img189.imageshack.us/img189/5053/boogiepopphantomcursato.jpg&quot; rel=&quot;nofollow&quot; target=&quot;_NEW&quot;&gt;\nhttp://img189.imageshack.us/img189/5053/boogiepopphantomcursato.jpg&lt;/a&gt;\n\n---------------------------------------------------------------------------------\n\nInfo\n---------------------------------------------------------------------------------\n\nTorrent Statistics\n-------------------\n        &lt;a href=&quot;\nhttp://torrent-stats.info/927d/12eb2030c.png&quot; rel=&quot;nofollow&quot; target=&quot;_NEW&quot;&gt;\nhttp://torrent-stats.info/927d/12eb2030c.png&lt;/a&gt;\n\n---------------------------------------------------------------------------------\n\nGeneral\n--------\n\nFormat                                   : MPEG-4\nFormat profile                           : Base Media\nCodec ID                                 : isom\nFile size                                : 39.3 MiB\nDuration                                 : 23mn 55s\nOverall bit rate mode                    : Variable\nOverall bit rate                         : 230 Kbps\nEncoded date                             : UTC 2012-01-10 08:28:00\nTagged date                              : UTC 2012-01-10 08:28:00\n\nVideo\n---------------------------------------\n\nID                                       : 1\nFormat                                   : AVC\nFormat/Info                              : Advanced Video Codec\nFormat profile                           : &lt;a class=&quot;__cf_email__&quot; href=&quot;/cdn-cgi/l/email-protection&quot; data-cfemail=&quot;692408000729255a4759&quot;&gt;[email&amp;#160;protected]&lt;/a&gt;&lt;script cf-hash='f9e31' type=&quot;text/javascript&quot;&gt;\n/* &lt;![CDATA[ */!function(){try{var t=&quot;currentScript&quot;in document?document.currentScript:function(){for(var t=document.getElementsByTagName(&quot;script&quot;),e=t.length;e--;)if(t[e].getAttribute(&quot;cf-hash&quot;))return t[e]}();if(t&amp;&amp;t.previousSibling){var e,r,n,i,c=t.previousSibling,a=c.getAttribute(&quot;data-cfemail&quot;);if(a){for(e=&quot;&quot;,r=parseInt(a.substr(0,2),16),n=2;a.length-n;n+=2)i=parseInt(a.substr(n,2),16)^r,e+=String.fromCharCode(i);e=document.createTextNode(e),c.parentNode.replaceChild(e,c)}}}catch(u){}}();/* ]]&gt; */&lt;/script&gt;\nFormat settings, CABAC                   : Yes\nFormat settings, ReFrames                : 4 frames\nCodec ID                                 : avc1\nCodec ID/Info                            : Advanced Video Coding\nDuration                                 : 23mn 54s\nBit rate                                 : 162 Kbps\nMaximum bit rate                         : 1 002 Kbps\nWidth                                    : 544 pixels\nHeight                                   : 408 pixels\nDisplay aspect ratio                     : 4:3\nFrame rate mode                          : Constant\nFrame rate                               : 23.976 fps\nColor space                              : YUV\nChroma subsampling                       : 4:2:0\nBit depth                                : 8 bits\nScan type                                : Progressive\nBits/(Pixel*Frame)                       : 0.030\nStream size                              : 27.7 MiB (70%)\nWriting library                          : x264 core 119 r2106 07efeb4\n\nAudio\n----------------------------------\n\nID                                       : 2\nFormat                                   : AAC\nFormat/Info                              : Advanced Audio Codec\nFormat profile                           : LC\nCodec ID                                 : 40\nDuration                                 : 23mn 55s\nBit rate mode                            : Variable\nBit rate                                 : 64.0 Kbps\nMaximum bit rate                         : 71.8 Kbps\nChannel(s)                               : 2 channels\nChannel positions                        : Front: L R\nSampling rate                            : 48.0 KHz\nCompression mode                         : Lossy\nDelay relative to video                  : 83ms\nStream size                              : 11.0 MiB (28%)\n\n----------------------------------------------------------------------------------\n\nScreenshots\n----------------------------------------------------------------------------------\n                       &lt;a href=&quot;\nhttp://img28.imageshack.us/img28/1694/14136321.png&quot; rel=&quot;nofollow&quot; target=&quot;_NEW&quot;&gt;\nhttp://img28.imageshack.us/img28/1694/14136321.png&lt;/a&gt;\n                       &lt;a href=&quot;\nhttp://img201.imageshack.us/img201/422/72527969.png&quot; rel=&quot;nofollow&quot; target=&quot;_NEW&quot;&gt;\nhttp://img201.imageshack.us/img201/422/72527969.png&lt;/a&gt;\n                       &lt;a href=&quot;\nhttp://img819.imageshack.us/img819/2605/40550860.png&quot; rel=&quot;nofollow&quot; target=&quot;_NEW&quot;&gt;\nhttp://img819.imageshack.us/img819/2605/40550860.png&lt;/a&gt;\n                       &lt;a href=&quot;\nhttp://img259.imageshack.us/img259/4839/85610043.png&quot; rel=&quot;nofollow&quot; target=&quot;_NEW&quot;&gt;\nhttp://img259.imageshack.us/img259/4839/85610043.png&lt;/a&gt;\n                       &lt;a href=&quot;\nhttp://img197.imageshack.us/img197/9070/86861548.png&quot; rel=&quot;nofollow&quot; target=&quot;_NEW&quot;&gt;\nhttp://img197.imageshack.us/img197/9070/86861548.png&lt;/a&gt;\n \n\n----------------------------------------------------------------------------------\n\nStory\n----------------------------------------------------------------------------------\n\nA light in the sky, followed by a strange aura and grisly murders. Each character tells there own connection to the event and to a similar murder spree 5 years ago. All of the different stories are slowly tied together by seemingly minute similarities and the story of Boogiepop is unraveled.\n\n----------------------------------------------------------------------------------\n\nThank you for downloading. \n\nEnjoy Watching :)\t\t\n--------------------------------------------------------------------------------\n\nFacebook and Email\n------------------\n\nFacebook/Cursator (Add .com)\n\n&lt;a class=&quot;__cf_email__&quot; href=&quot;/cdn-cgi/l/email-protection&quot; data-cfemail=&quot;733006010012071c01330a1e121a1f5d101c1e&quot;&gt;[email&amp;#160;protected]&lt;/a&gt;&lt;script cf-hash='f9e31' type=&quot;text/javascript&quot;&gt;\n/* &lt;![CDATA[ */!function(){try{var t=&quot;currentScript&quot;in document?document.currentScript:function(){for(var t=document.getElementsByTagName(&quot;script&quot;),e=t.length;e--;)if(t[e].getAttribute(&quot;cf-hash&quot;))return t[e]}();if(t&amp;&amp;t.previousSibling){var e,r,n,i,c=t.previousSibling,a=c.getAttribute(&quot;data-cfemail&quot;);if(a){for(e=&quot;&quot;,r=parseInt(a.substr(0,2),16),n=2;a.length-n;n+=2)i=parseInt(a.substr(n,2),16)^r,e+=String.fromCharCode(i);e=document.createTextNode(e),c.parentNode.replaceChild(e,c)}}}catch(u){}}();/* ]]&gt; */&lt;/script&gt; \n\nThank you :)\t\t\n\t\t\t\t\t\t\t\n\t\t\t\t","torrent":{"xt":"urn:btih:9c979f849d60d4b92bb2927dc405779f62f43b95","amp;dn":"Boogiepop+Phantom+%28Complete+Ep+1-12%29+480p+%5BCursator%5D","amp;tr":["udp%3A%2F%2Ftracker.openbittorrent.com%3A80","udp%3A%2F%2Fopen.demonii.com%3A1337","udp%3A%2F%2Ftracker.coppersurfer.tk%3A6969","udp%3A%2F%2Fexodus.desync.com%3A6969"],"infoHash":"9c979f849d60d4b92bb2927dc405779f62f43b95","infoHashBuffer":{"type":"Buffer","data":[156,151,159,132,157,96,212,185,43,178,146,125,196,5,119,159,98,244,59,149]},"announce":[],"urlList":[]}}